<?xml version="1.0" encoding="UTF-8"?>
<!-- Generated by Pixelmator Pro 3.7 -->
<svg width="800" height="800" viewBox="0 0 800 800" xmlns="http://www.w3.org/2000/svg">
    <g id="SVGRepobgCarrier"/>
    <g id="SVGRepotracerCarrier"/>
    <g id="SVGRepoiconCarrier">
        <g id="Group">
            <path id="Path" fill="#7f22fe" stroke="none" d="M 338.336975 227.728088 L 416.507874 227.728088 L 416.507874 557.402588 L 338.336975 557.402588 Z"/>
            <path id="path1" fill="#7f22fe" stroke="none" d="M 639.122986 769.823181 C 628.92688 769.823181 618.730713 766.425049 610.234497 759.627075 L 377.421631 559.102539 L 144.610382 759.627075 C 129.316177 773.221375 102.125954 773.221375 86.831749 759.627075 C 71.537544 746.032715 71.537544 723.940552 86.831749 710.346252 L 348.533112 484.33136 C 363.827301 470.737061 391.017548 470.737061 406.311737 484.33136 L 668.013123 710.346252 C 683.307312 723.940552 683.307312 746.032715 668.013123 759.627075 C 659.515259 766.425049 649.319153 769.823181 639.122986 769.823181 Z"/>
            <path id="path2" fill="#7f22fe" stroke="none" d="M 377.318542 770 C 355.823883 770 337.637085 753.00592 337.637085 730.915344 L 337.637085 472.612183 C 337.637085 450.52002 355.823883 433.527496 377.318542 433.527496 C 398.813171 433.527496 417 450.521606 417 472.612183 L 417 730.913757 C 417 753.00592 398.813171 770 377.318542 770 Z"/>
        </g>
        <path id="path3" fill="#7f22fe" stroke="none" d="M 368.525604 116.270447 L 144.210617 31.303223 C 135.714355 27.905029 127.216522 31.303223 125.518219 39.799438 L 30.354818 269.212524 C 26.956636 276.010437 30.354818 284.506714 38.851067 287.904907 L 263.166077 372.872162 C 271.662323 376.270355 280.160156 372.872162 281.858459 364.375916 L 373.623688 136.66272 C 380.421631 128.166504 375.323547 119.66864 368.525604 116.270447 Z"/>
        <g id="g1">
            <path id="path4" fill="#a78bfa" stroke="none" d="M 26.235327 265.878723 L 31.318369 267.622986 L 126.809967 35.634644 L 123.426765 33.905151 C 106.49263 26.960754 86.026985 35.278687 79.082581 52.21283 L 6.214573 223.217896 C -0.731423 240.152039 7.601384 258.917847 26.235327 265.878723 Z"/>
            <path id="path5" fill="#a78bfa" stroke="none" d="M 535.461731 198.839539 L 372.323547 137.66272 L 282.25824 363.677612 L 445.396393 424.854431 C 453.89267 428.252625 462.390472 424.854431 465.788666 416.358185 L 545.657898 219.233398 C 547.357788 210.735596 543.958008 202.237732 535.461731 198.839539 Z"/>
        </g>
        <path id="path6" fill="#7f22fe" stroke="none" d="M 695.201721 268.512634 L 547.357788 212.433899 L 464.088776 418.056488 L 611.932739 474.135223 C 627.226929 480.933197 645.919373 472.435364 652.717285 457.141144 L 713.894104 307.59729 C 718.992188 292.304688 710.495911 275.310547 695.201721 268.512634 Z"/>
        <path id="path7" fill="#a78bfa" stroke="none" d="M 783.5672 368.775696 L 700.298218 338.187256 L 662.911865 429.952515 L 746.180847 460.540924 C 759.775146 465.638977 775.069336 457.1427 781.86731 440.148621 L 795.461609 407.860352 C 802.261169 390.866272 797.163086 373.873749 783.5672 368.775696 Z"/>
    </g>
</svg>
